<?xml version="1.0" encoding="UTF-8"?>
<svg id="Layer_1" data-name="Layer 1" xmlns="http://www.w3.org/2000/svg" viewBox="0 0 64.69 61.52">
  <defs>
    <style>
      .cls-1 {
        fill: #5fc795;
      }

      .cls-1, .cls-2 {
        stroke-width: 0px;
      }

      .cls-2 {
        fill: #1b2620;
      }
    </style>
  </defs>
  <path class="cls-1" d="m31.04,30.96c8.24-6.66,16.28-13.16,24.32-19.66,1.91-1.55,3.83-3.09,5.73-4.65,1.02-.84,2.1-1.25,3.09-.12.93,1.05.45,2.04-.42,2.94-10.07,10.33-20.12,20.68-30.21,30.99-2.35,2.4-5.42,1.99-7.18-.9-2.89-4.72-5.73-9.46-8.57-14.21-1.13-1.89-.82-3.88.69-4.95,1.68-1.2,3.66-.8,5.12,1.06,2.45,3.11,4.88,6.24,7.42,9.5Z"/>
  <path class="cls-2" d="m31.05,61.52C12.69,61.34-1.49,45.89.12,27.72,1.4,13.36,12.41,1.97,26.7.24c7.41-.9,14.2.73,20.31,5.05.23.16.45.33.67.5.79.61,1.25,1.36.62,2.3-.63.95-1.46.66-2.37.28-2.67-1.11-5.29-2.52-8.07-3.11C22.6,2.03,7.26,12.61,6.93,29.56c-.23,12.03,8.55,22.35,20.51,24.39,11.87,2.02,23.73-4.97,27.67-16.29,1.26-3.63,1.84-7.35,1.54-11.2-.12-1.58.58-2.58,1.88-2.66,1.4-.08,2.09.65,2.38,2.03,3.4,16.44-8.62,33.17-25.37,35.24-1.49.18-3,.3-4.49.44Z"/>
</svg>