<?xml version="1.0" encoding="UTF-8"?>
<svg id="Layer_1" data-name="Layer 1" xmlns="http://www.w3.org/2000/svg" viewBox="0 0 263.64 88.76">
  <defs>
    <style>
      .cls-1 {
        fill: #5fc795;
      }

      .cls-1, .cls-2 {
        stroke-width: 0px;
      }

      .cls-2 {
        fill: #1b2620;
      }
    </style>
  </defs>
  <path class="cls-1" d="m229.25,58.2c8.24-6.66,16.28-13.16,24.32-19.66,1.91-1.55,3.83-3.09,5.73-4.65,1.02-.84,2.1-1.25,3.09-.12.93,1.05.45,2.04-.42,2.94-10.07,10.33-20.12,20.68-30.21,30.99-2.35,2.4-5.42,1.99-7.18-.9-2.89-4.72-5.73-9.46-8.57-14.21-1.13-1.89-.82-3.88.69-4.95,1.68-1.2,3.66-.8,5.12,1.06,2.45,3.11,4.88,6.24,7.42,9.5Z"/>
  <path class="cls-2" d="m229.27,88.76c-18.36-.19-32.53-15.63-30.92-33.8,1.27-14.36,12.29-25.74,26.58-27.48,7.41-.9,14.2.73,20.31,5.05.23.16.45.33.67.5.79.61,1.25,1.36.62,2.3-.63.95-1.46.66-2.37.28-2.67-1.11-5.29-2.52-8.07-3.11-15.27-3.23-30.61,7.36-30.94,24.31-.23,12.03,8.55,22.35,20.51,24.39,11.87,2.02,23.73-4.97,27.67-16.29,1.26-3.63,1.84-7.35,1.54-11.2-.12-1.58.58-2.58,1.88-2.66,1.4-.08,2.09.65,2.38,2.03,3.4,16.44-8.62,33.17-25.37,35.24-1.49.18-3,.3-4.49.44Z"/>
  <g>
    <path class="cls-2" d="m10.63,88.76H0V24.09C0,8.03,8.06,0,24.18,0h8.77v9.17h-6.78c-5.4,0-9.35,1.2-11.83,3.61-2.48,2.41-3.72,6.16-3.72,11.24v4.68h22.32v9.3H10.63v50.76Z"/>
    <path class="cls-2" d="m47.83,3.06c2.13,0,3.94.75,5.45,2.26,1.5,1.51,2.26,3.32,2.26,5.45s-.75,4.08-2.26,5.58c-1.51,1.51-3.32,2.26-5.45,2.26s-4.08-.75-5.58-2.26c-1.51-1.5-2.26-3.37-2.26-5.58s.75-3.94,2.26-5.45c1.5-1.5,3.37-2.26,5.58-2.26Zm5.45,85.7h-10.63V28.3h10.63v60.46Z"/>
    <path class="cls-2" d="m121.44,88.76h-10.63v-31.62c0-6.2-1.33-10.98-3.99-14.35-2.66-3.37-6.47-5.05-11.43-5.05-10.36,0-15.55,6.64-15.55,19.93v31.09h-10.63v-34.02c0-8.24,2.39-14.88,7.17-19.93,4.78-5.05,11.16-7.57,19.13-7.57s14.06,2.5,18.8,7.51c4.74,5.01,7.11,11.63,7.11,19.86v34.15Z"/>
    <path class="cls-2" d="m142.83,3.06c2.13,0,3.94.75,5.45,2.26,1.51,1.51,2.26,3.32,2.26,5.45s-.75,4.08-2.26,5.58c-1.51,1.51-3.32,2.26-5.45,2.26s-4.08-.75-5.58-2.26c-1.51-1.5-2.26-3.37-2.26-5.58s.75-3.94,2.26-5.45c1.51-1.5,3.37-2.26,5.58-2.26Zm5.45,85.7h-10.63V28.3h10.63v60.46Z"/>
    <path class="cls-2" d="m174.46,38v28.17c0,5.23.93,8.73,2.79,10.5,1.86,1.77,5.62,2.66,11.29,2.66h5.18v9.43h-5.71c-9.21,0-15.55-1.59-19-4.78-3.46-3.19-5.18-8.99-5.18-17.41V10.36h10.63v18.34h19.27v9.3h-19.27Z"/>
  </g>
</svg>